<?xml version="1.0" encoding="UTF-8" standalone="no"?>
<!-- Created with Inkscape (http://www.inkscape.org/) -->

<svg
   width="793.70081"
   height="793.70081"
   viewBox="0 0 210 210"
   version="1.1"
   id="svg5"
   xmlns="http://www.w3.org/2000/svg"
   xmlns:svg="http://www.w3.org/2000/svg">
  <defs
     id="defs2" />
  <g
     id="layer1">
    <path
       style="opacity:1;fill:#ffffff;stroke-width:0.264583"
       id="rect1522"
       width="42.810276"
       height="93.957504"
       x="56.909977"
       y="3.0253274"
       ry="0"
       d="m 96.613945,3.0253274 h 3.106308 V 57.593975 A 39.388857,39.388857 135 0 1 60.331396,96.982832 H 56.909977 V 42.729295 A 39.703968,39.703968 135 0 1 96.613945,3.0253274 Z" />
    <path
       style="opacity:1;fill:#ffffff;stroke-width:0.264583"
       id="rect1567"
       width="42.697517"
       height="42.855076"
       x="110.13125"
       y="2.6784425"
       d="m 110.13125,2.6784425 h 2.67844 a 40.019079,40.019079 45 0 1 40.01908,40.0190785 v 2.835997 h -42.69752 z" />
    <path
       style="opacity:1;fill:#ffffff;stroke-width:0.264583"
       id="path1670"
       width="42.810276"
       height="93.957504"
       x="56.328697"
       y="-206.90758"
       ry="0"
       d="m 96.032665,-206.90758 h 3.106308 v 54.56865 a 39.388857,39.388857 135 0 1 -39.388857,39.38886 h -3.421419 v -54.25354 a 39.703968,39.703968 135 0 1 39.703968,-39.70397 z"
       transform="rotate(90)" />
    <path
       style="opacity:1;fill:#ffffff;stroke-width:0.264583"
       id="path1676"
       width="42.810276"
       height="93.957504"
       x="-153.44666"
       y="-206.6414"
       ry="0"
       d="m -113.74269,-206.6414 h 3.10631 v 54.56864 a 39.388857,39.388857 135 0 1 -39.38886,39.38886 h -3.42142 v -54.25354 a 39.703968,39.703968 135 0 1 39.70397,-39.70396 z"
       transform="scale(-1)" />
    <path
       style="opacity:1;fill:#ffffff;stroke-width:0.264583"
       id="path1682"
       width="42.810276"
       height="93.957504"
       x="-153.02293"
       y="3.4490538"
       ry="0"
       d="m -113.31897,3.4490538 h 3.10631 V 58.017701 a 39.388857,39.388857 135 0 1 -39.38885,39.388857 h -3.42142 V 43.153022 a 39.703968,39.703968 135 0 1 39.70396,-39.7039682 z"
       transform="rotate(-90)" />
    <path
       style="opacity:1;fill:#ffffff;stroke-width:0.264583"
       id="path1688"
       width="42.697517"
       height="42.855076"
       x="109.89491"
       y="-206.94905"
       d="m 109.89491,-206.94905 h 2.67844 a 40.019079,40.019079 45 0 1 40.01908,40.01908 v 2.83599 h -42.69752 z"
       transform="rotate(90)" />
    <path
       style="opacity:1;fill:#ffffff;stroke-width:0.264583"
       id="path1694"
       width="42.697517"
       height="42.855076"
       x="-100.04769"
       y="-206.87027"
       d="m -100.04769,-206.87027 2.678437,0 a 40.019079,40.019079 45 0 1 40.019079,40.01908 v 2.836 h -42.697516 z"
       transform="scale(-1)" />
    <path
       style="opacity:1;fill:#ffffff;stroke-width:0.264583"
       id="path1700"
       width="42.697517"
       height="42.855076"
       x="-99.653816"
       y="3.2298832"
       d="m -99.653816,3.2298832 h 2.678438 a 40.019079,40.019079 45 0 1 40.019079,40.0190788 v 2.835997 h -42.697517 z"
       transform="rotate(-90)" />
  </g>
</svg>
